<?xml version="1.0" encoding="UTF-8"?><svg xmlns="http://www.w3.org/2000/svg" xmlns:xlink="http://www.w3.org/1999/xlink" height="495.2" preserveAspectRatio="xMidYMid meet" version="1.0" viewBox="2.1 2.3 495.2 495.2" width="495.2" zoomAndPan="magnify"><g id="change1_1"><circle cx="249.7" cy="249.9" fill="#C1272D" r="240.4"/></g><g fill="#FFF"><g><g id="change2_5"><path d="M222.5,44.7c0-0.7-0.5-1.2-1.2-1.2h-11.6c-0.7,0-1.2,0.5-1.2,1.2v34.6c0,0.7,0.5,1.2,1.2,1.2h11.6 c0.7,0,1.2-0.5,1.2-1.2V44.7z" fill="inherit"/><path d="M222.5,99.7c0-0.7-0.5-1.2-1.2-1.2h-11.6c-0.7,0-1.2,0.5-1.2,1.2v34.6c0,0.7,0.5,1.2,1.2,1.2h11.6 c0.7,0,1.2-0.5,1.2-1.2V99.7z" fill="inherit"/><path d="M222.5,155.7c0-0.7-0.5-1.2-1.2-1.2h-11.6c-0.7,0-1.2,0.5-1.2,1.2v34.6c0,0.7,0.5,1.2,1.2,1.2h11.6 c0.7,0,1.2-0.5,1.2-1.2V155.7z" fill="inherit"/><path d="M222.5,210.7c0-0.7-0.5-1.2-1.2-1.2h-11.6c-0.7,0-1.2,0.5-1.2,1.2v34.6c0,0.7,0.5,1.2,1.2,1.2h11.6 c0.7,0,1.2-0.5,1.2-1.2V210.7z" fill="inherit"/><path d="M222.5,265.7c0-0.7-0.5-1.2-1.2-1.2h-11.6c-0.7,0-1.2,0.5-1.2,1.2v34.6c0,0.7,0.5,1.2,1.2,1.2h11.6 c0.7,0,1.2-0.5,1.2-1.2V265.7z" fill="inherit"/><path d="M222.5,320.7c0-0.7-0.5-1.2-1.2-1.2h-11.6c-0.7,0-1.2,0.5-1.2,1.2v34.6c0,0.7,0.5,1.2,1.2,1.2h11.6 c0.7,0,1.2-0.5,1.2-1.2V320.7z" fill="inherit"/><path d="M222.5,376.7c0-0.7-0.5-1.2-1.2-1.2h-11.6c-0.7,0-1.2,0.5-1.2,1.2v34.6c0,0.7,0.5,1.2,1.2,1.2h11.6 c0.7,0,1.2-0.5,1.2-1.2V376.7z" fill="inherit"/><path d="M222.5,431.7c0-0.7-0.5-1.2-1.2-1.2h-11.6c-0.7,0-1.2,0.5-1.2,1.2v34.6c0,0.7,0.5,1.2,1.2,1.2h11.6 c0.7,0,1.2-0.5,1.2-1.2V431.7z" fill="inherit"/></g><g id="change2_2"><path d="M290.5,44.7c0-0.7-0.5-1.2-1.2-1.2h-11.6c-0.7,0-1.2,0.5-1.2,1.2v34.6c0,0.7,0.5,1.2,1.2,1.2h11.6 c0.7,0,1.2-0.5,1.2-1.2V44.7z" fill="inherit"/><path d="M290.5,99.7c0-0.7-0.5-1.2-1.2-1.2h-11.6c-0.7,0-1.2,0.5-1.2,1.2v34.6c0,0.7,0.5,1.2,1.2,1.2h11.6 c0.7,0,1.2-0.5,1.2-1.2V99.7z" fill="inherit"/><path d="M290.5,155.7c0-0.7-0.5-1.2-1.2-1.2h-11.6c-0.7,0-1.2,0.5-1.2,1.2v34.6c0,0.7,0.5,1.2,1.2,1.2h11.6 c0.7,0,1.2-0.5,1.2-1.2V155.7z" fill="inherit"/><path d="M290.5,210.7c0-0.7-0.5-1.2-1.2-1.2h-11.6c-0.7,0-1.2,0.5-1.2,1.2v34.6c0,0.7,0.5,1.2,1.2,1.2h11.6 c0.7,0,1.2-0.5,1.2-1.2V210.7z" fill="inherit"/><path d="M290.5,265.7c0-0.7-0.5-1.2-1.2-1.2h-11.6c-0.7,0-1.2,0.5-1.2,1.2v34.6c0,0.7,0.5,1.2,1.2,1.2h11.6 c0.7,0,1.2-0.5,1.2-1.2V265.7z" fill="inherit"/><path d="M290.5,320.7c0-0.7-0.5-1.2-1.2-1.2h-11.6c-0.7,0-1.2,0.5-1.2,1.2v34.6c0,0.7,0.5,1.2,1.2,1.2h11.6 c0.7,0,1.2-0.5,1.2-1.2V320.7z" fill="inherit"/><path d="M290.5,376.7c0-0.7-0.5-1.2-1.2-1.2h-11.6c-0.7,0-1.2,0.5-1.2,1.2v34.6c0,0.7,0.5,1.2,1.2,1.2h11.6 c0.7,0,1.2-0.5,1.2-1.2V376.7z" fill="inherit"/><path d="M290.5,431.7c0-0.7-0.5-1.2-1.2-1.2h-11.6c-0.7,0-1.2,0.5-1.2,1.2v34.6c0,0.7,0.5,1.2,1.2,1.2h11.6 c0.7,0,1.2-0.5,1.2-1.2V431.7z" fill="inherit"/></g></g><g><g id="change2_1"><path d="M164.5 474.5L164.5 24.5" fill="inherit"/><path d="M157.5 24.5H171.5V474.5H157.5z" fill="inherit"/></g><g id="change2_6"><path d="M138.5 462.5L138.5 35.5" fill="inherit"/><path d="M131.5 35.5H145.5V462.5H131.5z" fill="inherit"/></g><g id="change2_3"><path d="M334.5 471.5L334.5 21.5" fill="inherit"/><path d="M327.5 21.5H341.5V471.5H327.5z" fill="inherit"/></g><g id="change2_4"><path d="M360.5 459.5L360.5 32.5" fill="inherit"/><path d="M353.5 32.5H367.5V459.5H353.5z" fill="inherit"/></g></g></g><g><g id="change3_2"><path d="M249.7,497.5c-66.1,0-128.3-25.8-175.1-72.5C27.8,378.2,2.1,316,2.1,249.9c0-66.1,25.8-128.3,72.5-175.1 C121.4,28,183.5,2.3,249.7,2.3C315.8,2.3,378,28,424.8,74.8c46.8,46.8,72.5,108.9,72.5,175.1c0,66.1-25.8,128.3-72.5,175.1 S315.8,497.5,249.7,497.5z M249.7,16.7c-62.3,0-120.9,24.3-164.9,68.3S16.5,187.6,16.5,249.9c0,62.3,24.3,120.9,68.3,164.9 c44,44,102.6,68.3,164.9,68.3c62.3,0,120.9-24.3,164.9-68.3c44-44,68.3-102.6,68.3-164.9c0-62.3-24.3-120.9-68.3-164.9 C370.5,40.9,312,16.7,249.7,16.7z" fill="inherit"/></g><g id="change3_1"><path d="M249.5 489.5L249.5 9.5" fill="inherit"/><path d="M242.5 9.5H256.5V489.5H242.5z" fill="inherit"/></g></g><g id="change3_3"><path d="M137.1,438.6c32.7,18.9,70.6,29.7,111,29.7c122.6,0,222.1-99.4,222.1-222.1c0-25.5-4.3-49.9-12.2-72.7 c0,0-38.9,86.4-138.3,162.4S137.1,438.6,137.1,438.6z" fill="inherit" opacity=".25"/></g></svg>